<svg width="90" height="80" viewBox="0 0 90 80" fill="none" xmlns="http://www.w3.org/2000/svg">
<path d="M60.5939 36.7743V50.2769H32.1487V23.2717H42.3484C42.4499 21.9022 42.7953 20.6098 43.3236 19.4139H32.1487C29.9137 19.4139 28.0851 21.1499 28.0851 23.2717V50.2769C28.0851 52.3987 29.9137 54.1348 32.1487 54.1348H60.5939C62.8289 54.1348 64.6575 52.3987 64.6575 50.2769V40.6322L60.5939 36.7743ZM57.5462 46.419H35.1964L40.7839 39.6099L44.7662 44.1622L50.3536 37.3337L57.5462 46.419ZM63.2353 28.8464C64.1292 27.4961 64.6575 25.9337 64.6575 24.2362C64.6575 19.4331 60.5736 15.556 55.5144 15.556C50.4552 15.556 46.3713 19.4331 46.3713 24.2362C46.3713 29.0393 50.4552 32.9164 55.4941 32.9164C57.2821 32.9164 58.9482 32.4149 60.3501 31.5662L66.6893 37.5845L69.5745 34.8454L63.2353 28.8464ZM55.5144 29.0586C52.7105 29.0586 50.4349 26.8981 50.4349 24.2362C50.4349 21.5743 52.7105 19.4139 55.5144 19.4139C58.3183 19.4139 60.5939 21.5743 60.5939 24.2362C60.5939 26.8981 58.3183 29.0586 55.5144 29.0586Z" fill="#4EAEFE"/>
<path fill-rule="evenodd" clip-rule="evenodd" d="M49.8939 79.6592C79.574 75.7171 90 33.9 90 23.9461C90 10.1199 74.0572 0 59.5183 0C50.7441 0 20.0126 7.29413 10.8776 14.179C4.3275 18.0001 0 24.5992 0 32.0996C0 43.9184 16.1538 70.5843 39.6923 78.5371C41.821 79.2563 43.6877 79.6956 45.319 79.8871C45.3191 79.9107 45.3191 79.9342 45.3191 79.9577C45.5384 79.9577 45.7566 79.9557 45.974 79.9518C47.4891 80.072 48.7878 79.9649 49.8939 79.6592Z" fill="#4EAEFE" fill-opacity="0.2"/>
</svg>
